Coordinates
version=1
nRows=4
nColumns=114
inDegrees=yes

Units are S.I. units (second, meters, Newtons, ...)
If the header above contains a line with 'inDegrees', this indicates whether rotational values are in degrees (yes) or radians (no).

endheader 
time	pelvis_tilt	pelvis_list	pelvis_rotation	pelvis_tx	pelvis_ty	pelvis_tz	hip_flexion_l	hip_adduction_l	hip_rotation_l	hip_flexion_r	hip_adduction_r	hip_rotation_r	knee_angle_l	knee_angle_r	ankle_angle_l	ankle_angle_r	subtalar_angle_l	subtalar_angle_r	mtp_angle_l	mtp_angle_r	lumbar_extension	lumbar_bending	lumbar_rotation	arm_flex_l	arm_add_l	arm_rot_l	arm_flex_r	arm_add_r	arm_rot_r	elbow_flex_l	elbow_flex_r	pro_sup_l	pro_sup_r	addbrev_l/activation	addlong_l/activation	addmagDist_l/activation	addmagIsch_l/activation	addmagMid_l/activation	addmagProx_l/activation	bflh_l/activation	bfsh_l/activation	edl_l/activation	ehl_l/activation	fdl_l/activation	fhl_l/activation	gaslat_l/activation	gasmed_l/activation	glmax1_l/activation	glmax2_l/activation	glmax3_l/activation	glmed1_l/activation	glmed2_l/activation	glmed3_l/activation	glmin1_l/activation	glmin2_l/activation	glmin3_l/activation	grac_l/activation	iliacus_l/activation	perbrev_l/activation	perlong_l/activation	piri_l/activation	psoas_l/activation	recfem_l/activation	sart_l/activation	semimem_l/activation	semiten_l/activation	soleus_l/activation	tfl_l/activation	tibant_l/activation	tibpost_l/activation	vasint_l/activation	vaslat_l/activation	vasmed_l/activation	addbrev_r/activation	addlong_r/activation	addmagDist_r/activation	addmagIsch_r/activation	addmagMid_r/activation	addmagProx_r/activation	bflh_r/activation	bfsh_r/activation	edl_r/activation	ehl_r/activation	fdl_r/activation	fhl_r/activation	gaslat_r/activation	gasmed_r/activation	glmax1_r/activation	glmax2_r/activation	glmax3_r/activation	glmed1_r/activation	glmed2_r/activation	glmed3_r/activation	glmin1_r/activation	glmin2_r/activation	glmin3_r/activation	grac_r/activation	iliacus_r/activation	perbrev_r/activation	perlong_r/activation	piri_r/activation	psoas_r/activation	recfem_r/activation	sart_r/activation	semimem_r/activation	semiten_r/activation	soleus_r/activation	tfl_r/activation	tibant_r/activation	tibpost_r/activation	vasint_r/activation	vaslat_r/activation	vasmed_r/activation	
          4.70000000	          7.18469074	         -7.74657401	        -68.51482981	         -3.88890991	          0.99911582	          0.43114596	         32.44535344	        -10.29776258	        -13.24473316	         10.80728731	         -2.82179755	         16.64807203	         47.63942941	         66.01487627	        -12.01779078	         -3.79217152	        -15.26410905	        -30.09985906	         -0.00892295	          0.20024547	         -5.82123538	          9.18533244	          5.58255790	       -462.56226651	        -70.00361971	       -109.85961320	       -275.40311545	        -15.36964661	         -0.81165591	        118.73747254	        121.51796058	         87.61413052	         93.37882185	          0.02502044	          0.02627970	          0.01238066	          0.01005318	          0.01735062	          0.06051241	          0.04140449	          0.58985139	          0.24411795	          0.10238237	          0.01021749	          0.01011383	          0.27351349	          0.40347116	          0.11507514	          0.06001916	          0.03345301	          0.01010486	          0.21144086	          0.72810965	          0.01019938	          0.05350478	          0.46603246	          0.02541111	          0.01335806	          0.17859077	          0.17199087	          0.68729418	          0.14321323	          0.07391152	          0.82742299	          0.08413352	          0.02278880	          0.01499079	          0.29433568	          0.25169621	          0.01005371	          0.01203114	          0.01201279	          0.01202287	          0.21005859	          0.35582042	          0.12410472	          0.06224242	          0.20610596	          0.20904623	          0.17075388	          0.11616867	          0.19366800	          0.05645654	          0.01421105	          0.02369093	          0.03595928	          0.03205774	          0.03787648	          0.04629178	          0.26798565	          0.01003739	          0.01005614	          0.05943123	          0.01012879	          0.03887496	          0.05408980	          0.22406636	          0.19895308	          0.08074103	          0.06869530	          0.13355753	          0.31804741	          0.05238677	          0.10494184	          0.05244182	          0.13639380	          0.02429826	          0.02143038	          0.13154326	          0.01121320	          0.01004726	          0.01001754	          0.01003546	
          4.71000000	          6.30789457	         -8.35853339	        -69.55461581	         -3.86794754	          1.00428599	          0.42910768	         32.46222233	        -10.45952771	        -13.49816624	         12.46820882	          0.39078998	         13.46525390	         47.74200543	         68.07730075	        -14.61912885	         -3.88711514	        -16.09541291	        -30.70056043	         -0.00364072	          0.21755601	         -6.60920395	          8.89897218	          5.94991552	       -517.59778564	        -63.25657201	       -135.32503081	       -285.67601271	        -16.08381109	         -8.25487682	        118.34293580	        122.82525840	         86.34999492	         93.52414450	          0.02085499	          0.02190238	          0.01033518	          0.01005211	          0.01446621	          0.05043470	          0.03451243	          0.49856018	          0.21986374	          0.08567024	          0.01089325	          0.01044698	          0.27377682	          0.36833230	          0.09593418	          0.05003446	          0.02788090	          0.01008895	          0.17638343	          0.65560115	          0.01018136	          0.04521347	          0.38848582	          0.02119321	          0.01120192	          0.14890558	          0.14348630	          0.64649045	          0.11939218	          0.06160920	          0.79728692	          0.07011828	          0.01903584	          0.01370000	          0.35025547	          0.22297116	          0.01016991	          0.01004386	          0.01001646	          0.01003245	          0.17507401	          0.29653195	          0.10344826	          0.05189752	          0.17178372	          0.17424929	          0.14230763	          0.09688126	          0.20815183	          0.04974476	          0.01212034	          0.01976889	          0.02997242	          0.02671880	          0.03175002	          0.03882354	          0.22333544	          0.01006228	          0.01011172	          0.04955713	          0.01020437	          0.03242974	          0.04511931	          0.18674988	          0.16584984	          0.06748824	          0.05730798	          0.13115270	          0.26508055	          0.19655530	          0.08761907	          0.04372844	          0.11368082	          0.02025144	          0.01791464	          0.14441623	          0.01028127	          0.01015086	          0.01005504	          0.01010933	
          4.72000000	          5.45833079	         -8.80685099	        -70.19362220	         -3.84544869	          1.01034472	          0.42652783	         32.60095504	        -10.42916171	        -13.81936191	         13.79041190	          3.19421323	          9.55695157	         48.11533751	         69.18909814	        -17.14247493	         -3.52996391	        -16.77247431	        -30.83245057	          0.00799206	          0.22697631	         -7.22471345	          8.88440535	          6.29547942	       -523.17783670	        -50.80504830	       -130.55604221	       -296.21571189	        -18.28495086	        -13.72995790	        118.64334862	        124.11364664	         85.21489989	         93.67436747	          0.01738507	          0.01825537	          0.01004808	          0.01004904	          0.01206666	          0.04203728	          0.02876750	          0.46525800	          0.19358390	          0.07175590	          0.01234146	          0.01122360	          0.22900529	          0.30733973	          0.07997161	          0.04170807	          0.02323748	          0.01011898	          0.23265318	          0.62974015	          0.01023420	          0.04018881	          0.38703477	          0.01768086	          0.01055167	          0.12422113	          0.11991039	          0.61443474	          0.09964164	          0.11936224	          0.89160743	          0.05843705	          0.01589684	          0.01238050	          0.39014856	          0.19350683	          0.01089457	          0.01002985	          0.01001042	          0.01002241	          0.14591633	          0.24712374	          0.08622717	          0.04326908	          0.14317701	          0.14524762	          0.11859910	          0.08080608	          0.18472065	          0.04278783	          0.01051608	          0.01652300	          0.02498280	          0.02226937	          0.04572724	          0.03252184	          0.18612353	          0.01010783	          0.01033501	          0.04142362	          0.01032120	          0.02709253	          0.03771785	          0.15564945	          0.13831333	          0.05641168	          0.04786416	          0.10936618	          0.22095691	          0.26311582	          0.07330646	          0.03645986	          0.09474908	          0.01687915	          0.07423853	          0.20287077	          0.01008693	          0.01759508	          0.01868978	          0.01648726	
          4.73000000	          4.72062474	         -9.05439592	        -70.40216891	         -3.82134598	          1.01678059	          0.42360671	         32.86554626	        -10.13627904	        -14.28796745	         14.86783287	          5.40561306	          4.90623267	         48.73358243	         69.44403506	        -19.33837261	         -2.53730249	        -17.15976062	        -29.92916023	          0.02598300	          0.24202853	         -7.88877940	          9.01096028	          5.99427528	       -498.22309935	        -41.16411968	       -114.14732872	       -306.31786369	        -22.54019615	        -15.03629865	        116.99013495	        124.82712038	         84.36375600	         93.85088388	          0.01449587	          0.01521752	          0.01005029	          0.01004283	          0.01008920	          0.03504042	          0.02397944	          0.43588503	          0.18190650	          0.06019536	          0.01119230	          0.01063566	          0.19140945	          0.25621518	          0.06666481	          0.03476723	          0.01936820	          0.01026500	          0.29855373	          0.60552559	          0.01044421	          0.30132493	          0.39936574	          0.01475942	          0.24003345	          0.10365809	          0.10036995	          0.59559304	          0.08400467	          0.31149591	          0.96307090	          0.04870226	          0.01328294	          0.01046199	          0.40562742	          0.16151085	          0.01022286	          0.01002752	          0.01000973	          0.01002074	          0.12161625	          0.20594933	          0.07187366	          0.03607692	          0.11933617	          0.12107855	          0.09884261	          0.06742237	          0.16463908	          0.04134565	          0.01294075	          0.01392802	          0.02082503	          0.01856182	          0.03828339	          0.02715803	          0.15511190	          0.01010285	          0.01022287	          0.03468093	          0.01032239	          0.02269843	          0.03162235	          0.12973095	          0.11570684	          0.04705270	          0.03989786	          0.09116454	          0.18419385	          0.30555092	          0.06173725	          0.03040077	          0.07897159	          0.01407113	          0.21149031	          0.20805088	          0.01093432	          0.02765261	          0.04067835	          0.03491087	
